<svg xmlns="http://www.w3.org/2000/svg" viewBox="0 0 1200 630" width="1200" height="630">
  <rect width="1200" height="630" fill="#F5F2EA"/>
  <g fill="none" stroke="#93A286" stroke-width="1.6" stroke-linejoin="round" opacity="0.6">
    <path transform="translate(940 315) scale(1)"    d="M0,-270 C90,-260 170,-200 200,-120 C230,-40 280,30 250,110 C220,190 140,250 50,260 C-40,270 -150,250 -210,180 C-270,110 -280,10 -250,-70 C-220,-150 -150,-240 -60,-265 C-40,-270 -20,-272 0,-270 Z"/>
    <path transform="translate(944 311) scale(0.78)" d="M0,-270 C90,-260 170,-200 200,-120 C230,-40 280,30 250,110 C220,190 140,250 50,260 C-40,270 -150,250 -210,180 C-270,110 -280,10 -250,-70 C-220,-150 -150,-240 -60,-265 C-40,-270 -20,-272 0,-270 Z"/>
    <path transform="translate(948 305) scale(0.56)" d="M0,-270 C90,-260 170,-200 200,-120 C230,-40 280,30 250,110 C220,190 140,250 50,260 C-40,270 -150,250 -210,180 C-270,110 -280,10 -250,-70 C-220,-150 -150,-240 -60,-265 C-40,-270 -20,-272 0,-270 Z"/>
    <path transform="translate(954 299) scale(0.34)" d="M0,-270 C90,-260 170,-200 200,-120 C230,-40 280,30 250,110 C220,190 140,250 50,260 C-40,270 -150,250 -210,180 C-270,110 -280,10 -250,-70 C-220,-150 -150,-240 -60,-265 C-40,-270 -20,-272 0,-270 Z"/>
  </g>
  <text x="90" y="250" font-family="'Schibsted Grotesk', Arial, sans-serif" font-size="86" font-weight="600" fill="#1F352A" letter-spacing="-2">RVL·CPH</text>
  <text x="92" y="320" font-family="'Schibsted Grotesk', Arial, sans-serif" font-size="34" font-weight="500" fill="#4E7C64">Eco consultancy &amp; event management — Copenhagen</text>
  <text x="92" y="392" font-family="Georgia, serif" font-size="30" fill="#2C2A24">Sustainable strategy. Meaningful events.</text>
  <text x="92" y="432" font-family="Georgia, serif" font-size="30" fill="#2C2A24">Real-world impact.</text>
  <text x="92" y="540" font-family="'Schibsted Grotesk', Arial, sans-serif" font-size="24" fill="#66645A">Rikke Vinkel Lundsgaard · rvl-cph.dk</text>
</svg>
